<svg id="Layer_1" data-name="Layer 1" xmlns="http://www.w3.org/2000/svg" xmlns:xlink="http://www.w3.org/1999/xlink" viewBox="0 0 685.15 139.32"><defs><style>.cls-1{fill:url(#linear-gradient);}.cls-12,.cls-2{fill:#fff;}.cls-3{fill:none;stroke-width:14px;}.cls-12,.cls-3{stroke:#000;stroke-miterlimit:10;}.cls-4{fill:url(#linear-gradient-2);}.cls-5{fill:url(#linear-gradient-3);}.cls-6{fill:url(#linear-gradient-4);}.cls-7{fill:url(#linear-gradient-5);}.cls-8{fill:url(#linear-gradient-6);}.cls-9{fill:url(#linear-gradient-7);}.cls-10{fill:url(#linear-gradient-8);}.cls-11{isolation:isolate;}.cls-12{stroke-width:2px;}</style><linearGradient id="linear-gradient" x1="208.76" y1="569.59" x2="280.28" y2="640.42" gradientTransform="translate(-9.51 -547)" gradientUnits="userSpaceOnUse"><stop offset="0" stop-color="#1b263b"/><stop offset="1" stop-color="#146eb4"/></linearGradient><linearGradient id="linear-gradient-2" x1="193.13" y1="583.72" x2="195.54" y2="583.72" xlink:href="#linear-gradient"/><linearGradient id="linear-gradient-3" x1="195.46" y1="584.69" x2="195.51" y2="584.69" xlink:href="#linear-gradient"/><linearGradient id="linear-gradient-4" x1="44.2" y1="565.77" x2="195.41" y2="565.77" xlink:href="#linear-gradient"/><linearGradient id="linear-gradient-5" x1="54.29" y1="570.74" x2="193.11" y2="570.74" gradientTransform="translate(-9.51 -547)" gradientUnits="userSpaceOnUse"><stop offset="0" stop-color="#146eb4"/><stop offset="0.32" stop-color="#146aae"/><stop offset="1" stop-color="#1b263b"/></linearGradient><linearGradient id="linear-gradient-6" x1="9.51" y1="607.31" x2="209.73" y2="607.31" gradientTransform="translate(-9.51 -547)" gradientUnits="userSpaceOnUse"><stop offset="0" stop-color="#1b263b"/><stop offset="0.79" stop-color="#146eb4"/><stop offset="1" stop-color="#146eb4"/></linearGradient><linearGradient id="linear-gradient-7" x1="99.37" y1="643.16" x2="198.69" y2="643.16" xlink:href="#linear-gradient"/><linearGradient id="linear-gradient-8" x1="105.87" y1="652.62" x2="189.87" y2="652.62" xlink:href="#linear-gradient-5"/></defs><title>vekoprom-logo</title><path class="cls-1" d="M200.22,28.38l4.72,55.17s37.84,0,36.26,34.69l45.72,1.57s3.15-77.25-29.95-93H200.22Z" transform="translate(0 0)"/><path class="cls-2" d="M216,37.84h36.26S268,44.14,272.73,80.4c0,0-47.29-1.58-55.17-22.07Z" transform="translate(0 0)"/><circle class="cls-3" cx="209.67" cy="116.66" r="15.66"/><path class="cls-4" d="M186,37.74a.17.17,0,0,1,0,.1c-.81-.76-1.63-1.5-2.41-2.23a6.2,6.2,0,0,1,2.28,1.94v.1Z" transform="translate(0 0)"/><path class="cls-5" d="M186,37.74v-.09A.14.14,0,0,0,186,37.74Z" transform="translate(0 0)"/><path class="cls-6" d="M185.9,37.55a6.2,6.2,0,0,0-2.28-1.94h0c-25.6-23-44.87-23-44.87-23l-94-.72h0A106.64,106.64,0,0,1,34.69,0h96.16S171.62,3.14,185.9,37.55Z" transform="translate(0 0)"/><path class="cls-7" d="M183.6,35.6c-4.27-2.45-16-6.18-48-7.22H75.67S62.23,29.5,44.78,11.89l94,.72S158,12.61,183.6,35.6Z" transform="translate(0 0)"/><path class="cls-8" d="M0,41H156.07s33.11,3.44,44.15,37.86c0,0-1.27,1.72-64.9,0h-78S28.74,73.68,0,41Z" transform="translate(0 0)"/><path class="cls-9" d="M89.86,91.44h99.32a32.23,32.23,0,0,0-8.31,8.6c-.19.29-.36.57-.53.85h-84A26.22,26.22,0,0,1,89.86,91.44Z" transform="translate(0 0)"/><path class="cls-10" d="M96.36,100.89h84a27.65,27.65,0,0,0-3.77,9.46H123C109.57,110.35,101.29,105.62,96.36,100.89Z" transform="translate(0 0)"/><g class="cls-11"><path d="M343.54,54.23,324,99.28h-10.3L294.3,54.23h11.26l13.71,32.18,13.9-32.18Z" transform="translate(0 0)"/></g><g class="cls-11"><path d="M380,90.91v8.37H345.08V54.23h34.05v8.36H355.44v9.79h20.92v8.11H355.44V90.91Z" transform="translate(0 0)"/></g><g class="cls-11"><path d="M404.6,81.58l-6.05,6.31V99.28H388.19V54.23h10.36v21l19.95-21h11.59L411.43,74.31l19.75,25H419Z" transform="translate(0 0)"/></g><g class="cls-11"><path d="M442,97a22.47,22.47,0,0,1-8.81-8.34,23.92,23.92,0,0,1,0-23.87A22.47,22.47,0,0,1,442,56.48a27.92,27.92,0,0,1,25.26,0,23,23,0,0,1,0,40.55A27.92,27.92,0,0,1,442,97Zm19.86-7.69a13.22,13.22,0,0,0,5.05-5.12,16.14,16.14,0,0,0,0-14.93,13.15,13.15,0,0,0-5.05-5.12,15.12,15.12,0,0,0-14.42,0,13.15,13.15,0,0,0-5.05,5.12,16.06,16.06,0,0,0,0,14.93,13.22,13.22,0,0,0,5.05,5.12,15.12,15.12,0,0,0,14.42,0Z" transform="translate(0 0)"/></g><g class="cls-11"><path d="M516.82,56.22a15.43,15.43,0,0,1,6.79,5.67A15.65,15.65,0,0,1,526,70.58a15.68,15.68,0,0,1-2.38,8.65,15.18,15.18,0,0,1-6.79,5.67,25.56,25.56,0,0,1-10.4,2h-9.07V99.28H486.92V54.23h19.5A25.06,25.06,0,0,1,516.82,56.22ZM513,76.34a7.08,7.08,0,0,0,2.44-5.76A7.13,7.13,0,0,0,513,64.75c-1.63-1.35-4-2-7.15-2h-8.49V78.36h8.49C509,78.36,511.36,77.69,513,76.34Z" transform="translate(0 0)"/></g><g class="cls-11"><path d="M561.45,99.28l-8.69-12.55h-9.59V99.28H532.74V54.23h19.5a25.06,25.06,0,0,1,10.4,2,15.43,15.43,0,0,1,6.79,5.67,15.65,15.65,0,0,1,2.38,8.69,14.67,14.67,0,0,1-9.27,14.22l10.11,14.48Zm-2.64-34.53c-1.63-1.35-4-2-7.15-2h-8.49V78.43h8.49c3.13,0,5.52-.69,7.15-2.06a7.17,7.17,0,0,0,2.44-5.79A7.13,7.13,0,0,0,558.81,64.75Z" transform="translate(0 0)"/><path d="M589.22,97a22.43,22.43,0,0,1-8.82-8.34,23.92,23.92,0,0,1,0-23.87,22.43,22.43,0,0,1,8.82-8.34,27.92,27.92,0,0,1,25.26,0,23,23,0,0,1,0,40.55,27.92,27.92,0,0,1-25.26,0Zm19.85-7.69a13.15,13.15,0,0,0,5-5.12,16.06,16.06,0,0,0,0-14.93,13.09,13.09,0,0,0-5-5.12,15.1,15.1,0,0,0-14.41,0,13.18,13.18,0,0,0-5.06,5.12,16.14,16.14,0,0,0,0,14.93,13.24,13.24,0,0,0,5.06,5.12,15.1,15.1,0,0,0,14.41,0Z" transform="translate(0 0)"/><path d="M675.36,99.28l-.06-27L662,94.52h-4.7L644.15,72.83V99.28h-9.78V54.23H643l16.86,28,16.61-28H685l.13,45.05Z" transform="translate(0 0)"/></g><path class="cls-12" d="M210,107.5h0a9.5,9.5,0,0,1,9.5,9.5h0a9.5,9.5,0,0,1-9.5,9.5h0a9.5,9.5,0,0,1-9.5-9.5h0a9.5,9.5,0,0,1,9.5-9.5Z" transform="translate(0 0)"/></svg>