<?xml version="1.0" encoding="utf-8"?>
<!-- Generator: Adobe Illustrator 23.0.1, SVG Export Plug-In . SVG Version: 6.00 Build 0)  -->
<svg version="1.1" id="Capa_1" xmlns="http://www.w3.org/2000/svg" xmlns:xlink="http://www.w3.org/1999/xlink" x="0px" y="0px"
	 viewBox="0 0 91.2 91.2" style="enable-background:new 0 0 91.2 91.2;" xml:space="preserve">
<style type="text/css">
	.st0{fill:#146EB4;}
</style>
<g>
	<path class="st0" d="M32.8,12.8c0-7,5.7-12.8,12.8-12.8c7,0,12.8,5.7,12.8,12.8s-5.7,12.8-12.8,12.8C38.6,25.5,32.8,19.8,32.8,12.8
		z M51.7,34.2c0.1-2.8,1.1-5.3,2.6-7.5c-1.1-0.2-2.2-0.3-3.3-0.3H40.2c-1.1,0-2.3,0.1-3.3,0.3c1.6,2.3,2.6,5,2.6,8
		c2-1.1,4.3-1.7,6.7-1.7C48.2,33,50,33.5,51.7,34.2z M53.9,35.3c3.7,2.3,6.3,6.3,6.8,10.8c1.5,0.7,3.2,1.1,5,1.1
		c6.5,0,11.8-5.3,11.8-11.8c0-6.5-5.3-11.8-11.8-11.8C59.2,23.8,54,28.9,53.9,35.3z M46.2,59.4c6.5,0,11.8-5.3,11.8-11.8
		c0-6.5-5.3-11.8-11.8-11.8s-11.8,5.3-11.8,11.8C34.4,54.1,39.7,59.4,46.2,59.4z M51.2,60.2h-10c-8.3,0-15,6.8-15,15v12.2l0,0.2
		l0.8,0.3c7.9,2.5,14.8,3.3,20.5,3.3c11.1,0,17.5-3.2,17.9-3.4l0.8-0.4h0.1V75.3C66.2,67,59.5,60.2,51.2,60.2z M70.6,48.1h-9.9
		c-0.1,4-1.8,7.5-4.5,10.1c7.4,2.2,12.8,9,12.8,17.1V79c9.8-0.4,15.4-3.1,15.8-3.3l0.8-0.4h0.1V63.1C85.7,54.8,78.9,48.1,70.6,48.1z
		 M25.6,47.3c2.3,0,4.4-0.7,6.3-1.8c0.6-3.8,2.6-7,5.5-9.3c0-0.2,0-0.4,0-0.7c0-6.5-5.3-11.8-11.8-11.8c-6.5,0-11.8,5.3-11.8,11.8
		C13.8,42,19.1,47.3,25.6,47.3z M36.1,58.2c-2.7-2.6-4.3-6.1-4.5-10c-0.4,0-0.7-0.1-1.1-0.1h-10c-8.3,0-15,6.8-15,15v12.2l0,0.2
		l0.8,0.3c6.4,2,12,2.9,16.9,3.2v-3.7C23.4,67.2,28.7,60.4,36.1,58.2z"/>
</g>
</svg>
