<svg height="512" viewBox="0 0 512 512" width="512" xmlns="http://www.w3.org/2000/svg"><g id="Fill_out_line" data-name="Fill out line"><path d="m24 192h400v240h-400z" fill="#aacb2a"/><path d="m64 240h88v64h-88z" fill="#f6c633"/><path d="m264 360 24 40h104l-24-40z" fill="#ccdce8"/><path d="m208 232h96v32h-96z" fill="#37a6cb"/><circle cx="360" cy="248" fill="#37a6cb" r="24"/><circle cx="392" cy="176" fill="#92d4ef" r="96"/><path d="m440 128v65.01a32.0248 32.0248 0 0 1 -11.51 24.59009l-36.49 30.39991-36.49-30.3999a32.0248 32.0248 0 0 1 -11.51-24.5901v-65.01a30 30 0 0 0 48 0 30 30 0 0 0 48 0z" fill="#34a166"/><path d="m416 140v53.01a7.99663 7.99663 0 0 1 -2.88 6.1499l-21.12 17.6001-21.12-17.6001a7.99663 7.99663 0 0 1 -2.88-6.1499v-53.01a29.8225 29.8225 0 0 0 24-12 29.8225 29.8225 0 0 0 24 12z" fill="#8acda3"/><path d="m416 424h-384v-224h240v-16h-248a8.00008 8.00008 0 0 0 -8 8v240a8.00008 8.00008 0 0 0 8 8h400a8.00008 8.00008 0 0 0 8-8v-136h-16z"/><path d="m152 312a8.00008 8.00008 0 0 0 8-8v-64a8.00008 8.00008 0 0 0 -8-8h-88a8.00008 8.00008 0 0 0 -8 8v64a8.00008 8.00008 0 0 0 8 8zm-80-32h16v16h-16zm48 16h-16v-16h16zm24-48v48h-8v-24a8.00008 8.00008 0 0 0 -8-8h-56v-16z"/><path d="m56 328h48v16h-48z"/><path d="m120 328h48v16h-48z"/><path d="m184 328h48v16h-48z"/><path d="m56 360h64v16h-64z"/><path d="m136 360h64v16h-64z"/><path d="m56 392h32v16h-32z"/><path d="m104 392h32v16h-32z"/><path d="m257.03857 356.05859a7.99916 7.99916 0 0 0 .10157 8.05762l24 40a8.00072 8.00072 0 0 0 6.85986 3.88379h104a8.00028 8.00028 0 0 0 6.85986-12.11621l-24-40a8.00072 8.00072 0 0 0 -6.85986-3.88379h-104a8.00012 8.00012 0 0 0 -6.96143 4.05859zm106.43213 11.94141 14.39991 24h-85.34131l-14.39991-24z"/><path d="m280 240v-16h-72a8.00008 8.00008 0 0 0 -8 8v32a8.00008 8.00008 0 0 0 8 8h96v-16h-88v-16z"/><path d="m392 72a104 104 0 1 0 104 104 104.11791 104.11791 0 0 0 -104-104zm0 192a88 88 0 1 1 88-88 88.09957 88.09957 0 0 1 -88 88z"/><path d="m442.52979 120.41016a7.99551 7.99551 0 0 0 -8.92969 2.79 22.0005 22.0005 0 0 1 -35.2002 0 7.9995 7.9995 0 0 0 -12.7998 0 22.0005 22.0005 0 0 1 -35.2002 0 7.99969 7.99969 0 0 0 -14.3999 4.79984v65.01172a39.88993 39.88993 0 0 0 14.39258 30.72851l36.48584 30.40528a7.99943 7.99943 0 0 0 10.24316 0l36.48535-30.4043a39.89229 39.89229 0 0 0 14.39307-30.72949v-65.01172a8.00071 8.00071 0 0 0 -5.47021-7.58984zm-50.52979 19.08105a37.42183 37.42183 0 0 0 16.00012 7.6731l.00086 45.84643-16.00098 13.33399-16-13.333v-45.84742a37.422 37.422 0 0 0 16-7.6731zm40 53.52051a23.93429 23.93429 0 0 1 -8.63574 18.4375l-31.36426 26.13672-31.36475-26.1377a23.93194 23.93194 0 0 1 -8.63525-18.43652v-48.50293a37.52581 37.52581 0 0 0 8 2.65234v45.85059a15.95318 15.95318 0 0 0 5.75732 12.291l21.1211 17.60157a7.99943 7.99943 0 0 0 10.24316 0l21.12158-17.60157a15.95407 15.95407 0 0 0 5.75684-12.291v-45.85059a37.52581 37.52581 0 0 0 8-2.65234z"/></g></svg>