<?xml version="1.0" encoding="utf-8"?>
<!-- Generator: Adobe Illustrator 23.0.1, SVG Export Plug-In . SVG Version: 6.00 Build 0)  -->
<svg version="1.1" id="Capa_1" xmlns="http://www.w3.org/2000/svg" xmlns:xlink="http://www.w3.org/1999/xlink" x="0px" y="0px"
	 viewBox="0 0 469.3 469.3" style="enable-background:new 0 0 469.3 469.3;" xml:space="preserve">
<style type="text/css">
	.st0{fill:#146EB4;}
</style>
<g>
	<g>
		<path class="st0" d="M405.3,149.3h-64V64H42.7C19.1,64,0,83.1,0,106.7v234.7h42.7c0,35.3,28.7,64,64,64s64-28.7,64-64h128
			c0,35.3,28.7,64,64,64s64-28.7,64-64h42.7V234.7L405.3,149.3z M106.7,373.3c-17.7,0-32-14.3-32-32s14.3-32,32-32s32,14.3,32,32
			S124.4,373.3,106.7,373.3z M362.7,373.3c-17.7,0-32-14.3-32-32s14.3-32,32-32s32,14.3,32,32S380.4,373.3,362.7,373.3z
			 M341.3,234.7v-53.3h53.3l41.9,53.3H341.3L341.3,234.7z"/>
	</g>
</g>
</svg>
